<?xml version="1.0" encoding="utf-8"?>
<!-- Generator: Adobe Illustrator 22.0.1, SVG Export Plug-In . SVG Version: 6.00 Build 0)  -->
<svg version="1.1" id="图层_1" xmlns="http://www.w3.org/2000/svg" xmlns:xlink="http://www.w3.org/1999/xlink" x="0px" y="0px"
	 viewBox="0 0 1920 1080" style="enable-background:new 0 0 1920 1080;" xml:space="preserve">
<style type="text/css">
	.st0{fill:#3D3D3D;}
	.st1{fill:url(#SVGID_1_);}
	.st2{fill:url(#SVGID_2_);}
	.st3{fill:url(#SVGID_3_);}
	.st4{fill:url(#SVGID_4_);}
	.st5{fill:url(#SVGID_5_);}
	.st6{fill:#FFFFFF;}
	.st7{font-family:'AdobeSongStd-Light-GBpc-EUC-H';}
	.st8{font-size:146.1589px;}
</style>
<g>
	<rect class="st0" width="1920" height="1080"/>
</g>
<g>
	<linearGradient id="SVGID_1_" gradientUnits="userSpaceOnUse" x1="704.6175" y1="642.882" x2="293.3825" y2="-69.3979">
		<stop  offset="0" style="stop-color:#2E3192"/>
		<stop  offset="6.396724e-02" style="stop-color:#2D3A98"/>
		<stop  offset="0.1703" style="stop-color:#2954A8"/>
		<stop  offset="0.3051" style="stop-color:#237DC3"/>
		<stop  offset="0.3941" style="stop-color:#1E9CD7"/>
		<stop  offset="0.7216" style="stop-color:#0071BC"/>
		<stop  offset="0.9944" style="stop-color:#005B97"/>
	</linearGradient>
	<path class="st1" d="M904.4,520.5H93.6c-25.2,0-45.6-20.4-45.6-45.6V98.6C48,73.4,68.4,53,93.6,53h810.8
		c25.2,0,45.6,20.4,45.6,45.6v376.2C950,500.1,929.6,520.5,904.4,520.5z"/>
</g>
<g>
	<linearGradient id="SVGID_2_" gradientUnits="userSpaceOnUse" x1="700.0759" y1="1141.02" x2="297.9241" y2="444.4728">
		<stop  offset="0" style="stop-color:#2E3192"/>
		<stop  offset="6.396724e-02" style="stop-color:#2D3A98"/>
		<stop  offset="0.1703" style="stop-color:#2954A8"/>
		<stop  offset="0.3051" style="stop-color:#237DC3"/>
		<stop  offset="0.3941" style="stop-color:#1E9CD7"/>
		<stop  offset="0.7216" style="stop-color:#0071BC"/>
		<stop  offset="0.9944" style="stop-color:#005B97"/>
	</linearGradient>
	<path class="st2" d="M904.4,1016H93.6c-25.2,0-45.6-20.4-45.6-45.6V615.1c0-25.2,20.4-45.6,45.6-45.6h810.8
		c25.2,0,45.6,20.4,45.6,45.6v355.3C950,995.6,929.6,1016,904.4,1016z"/>
</g>
<g>
	<linearGradient id="SVGID_3_" gradientUnits="userSpaceOnUse" x1="1636.3258" y1="1132.7927" x2="1243.6742" y2="452.7">
		<stop  offset="0" style="stop-color:#2E3192"/>
		<stop  offset="6.396724e-02" style="stop-color:#2D3A98"/>
		<stop  offset="0.1703" style="stop-color:#2954A8"/>
		<stop  offset="0.3051" style="stop-color:#237DC3"/>
		<stop  offset="0.3941" style="stop-color:#1E9CD7"/>
		<stop  offset="0.7216" style="stop-color:#0071BC"/>
		<stop  offset="0.9944" style="stop-color:#005B97"/>
	</linearGradient>
	<path class="st3" d="M1826.4,1016h-772.8c-25.2,0-45.6-20.4-45.6-45.6V615.1c0-25.2,20.4-45.6,45.6-45.6h772.8
		c25.2,0,45.6,20.4,45.6,45.6v355.3C1872,995.6,1851.6,1016,1826.4,1016z"/>
</g>
<g>
	<linearGradient id="SVGID_4_" gradientUnits="userSpaceOnUse" x1="1585.2164" y1="667.3008" x2="1294.7836" y2="164.2563">
		<stop  offset="0" style="stop-color:#2E3192"/>
		<stop  offset="6.396724e-02" style="stop-color:#2D3A98"/>
		<stop  offset="0.1703" style="stop-color:#2954A8"/>
		<stop  offset="0.3051" style="stop-color:#237DC3"/>
		<stop  offset="0.3941" style="stop-color:#1E9CD7"/>
		<stop  offset="0.7216" style="stop-color:#0071BC"/>
		<stop  offset="0.9944" style="stop-color:#005B97"/>
	</linearGradient>
	<path class="st4" d="M1826.4,521h-772.8c-25.2,0-45.6-20.4-45.6-45.6V356.2c0-25.2,20.4-45.6,45.6-45.6h772.8
		c25.2,0,45.6,20.4,45.6,45.6v119.2C1872,500.6,1851.6,521,1826.4,521z"/>
</g>
<g>
	<linearGradient id="SVGID_5_" gradientUnits="userSpaceOnUse" x1="1585.2164" y1="409.7437" x2="1294.7836" y2="-93.3008">
		<stop  offset="0" style="stop-color:#2E3192"/>
		<stop  offset="6.396724e-02" style="stop-color:#2D3A98"/>
		<stop  offset="0.1703" style="stop-color:#2954A8"/>
		<stop  offset="0.3051" style="stop-color:#237DC3"/>
		<stop  offset="0.3941" style="stop-color:#1E9CD7"/>
		<stop  offset="0.7216" style="stop-color:#0071BC"/>
		<stop  offset="0.9944" style="stop-color:#005B97"/>
	</linearGradient>
	<path class="st5" d="M1826.4,263.4h-772.8c-25.2,0-45.6-20.4-45.6-45.6V98.6c0-25.2,20.4-45.6,45.6-45.6h772.8
		c25.2,0,45.6,20.4,45.6,45.6v119.2C1872,243,1851.6,263.4,1826.4,263.4z"/>
</g>
<text transform="matrix(1 0 0 1 465.238 332.4904)" class="st6 st7 st8">1</text>
<text transform="matrix(1 0 0 1 465.238 838.4948)" class="st6 st7 st8">2</text>
<text transform="matrix(1 0 0 1 1406.238 838.4945)" class="st6 st7 st8">5</text>
<text transform="matrix(1 0 0 1 1406.238 203.9696)" class="st6 st7 st8">3</text>
<text transform="matrix(1 0 0 1 1406.238 461.5267)" class="st6 st7 st8">4</text>
</svg>
