<?xml version="1.0" encoding="utf-8"?>
<!-- Generator: Adobe Illustrator 22.0.1, SVG Export Plug-In . SVG Version: 6.00 Build 0)  -->
<svg version="1.1" id="pic" xmlns="http://www.w3.org/2000/svg" xmlns:xlink="http://www.w3.org/1999/xlink" x="0px"
	y="0px" viewBox="0 0 617.4 1024" style="enable-background:new 0 0 617.4 1024;" xml:space="preserve">
	<style type="text/css">
		.st0 {
			fill: #030000;
		}

		.st1 {
			fill: url(#back_1_);
		}

		.st2 {
			fill: url(#front_1_);
			filter: url(#spotlight)
		}
	</style>
	<defs>
		<linearGradient id="front_1_" gradientUnits="userSpaceOnUse" x1="-1057.9702" y1="2446.2869" x2="-107.5693"
			y2="2446.2869" gradientTransform="matrix(6.590974e-17 1.0764 -1.0764 6.590974e-17 2872.6533 1139.2861)">
			<stop offset="0" style="stop-color:#FCEE21" />
			<stop offset="1" style="stop-color:#F7931E" />
		</linearGradient>
		<linearGradient id="back_1_" gradientUnits="userSpaceOnUse" x1="-413.7503" y1="546.4737" x2="609.2497"
			y2="546.4737" gradientTransform="matrix(5.375463e-17 -1 0.5792 4.039639e-17 110.0058 609.2497)">
			<stop offset="0" style="stop-color:#FCEE21" />
			<stop offset="1" style="stop-color:#F7931E" />
		</linearGradient>
		<filter id="spotlight">
			<!-- <feFlood result="floodFill" x="0" y="0" width="100%" height="100%" flood-color="green" flood-opacity="1" /> -->
			<feBlend in="SourceGraphic" in2="BackgroundImage" mode="screen" />
		</filter>
		<filter id="darken">
			<feColorMatrix type="matrix" values=".5 0 0 0 0 0 .5 0 0 0 0 0 .5 0 0 0 0 0 1 0 "/>
		</filter>
	</defs>
	<rect id="background" class="st0" width="617" height="1024" />

	<path id="back" class="st1" d="M617,1023c-143.1,0-259-87.8-258.6-196c0.1-37.8,5-81.4,17.2-131C431.3,469,236,528,236,269
	c0-3,0.1-5.9,0.1-8.8C241.1,115.1,399.7,0,591.7,0H617L617,1023L617,1023z" />
	<path id="front" class="st2" d="M250.7,0.5c0,0,122.7,100,52.8,327s175.1,168,175.1,427c0,78.8-44.9,138.6-97.3,181.6
	c-69.5,57-157,87.4-246.9,87.4H0.5V0.5H250.7z" />
</svg>