<?xml version="1.0" encoding="utf-8"?>
<!-- Generator: Adobe Illustrator 14.0.0, SVG Export Plug-In . SVG Version: 6.00 Build 43363)  -->
<!DOCTYPE svg PUBLIC "-//W3C//DTD SVG 1.1//EN" "http://www.w3.org/Graphics/SVG/1.1/DTD/svg11.dtd">
<svg version="1.1" id="Layer_1" xmlns="http://www.w3.org/2000/svg" xmlns:xlink="http://www.w3.org/1999/xlink" x="0px"
	y="0px" width="792px" height="612px" viewBox="0 0 792 612" enable-background="new 0 0 792 612" xml:space="preserve">
	<filter x="-10%" y="-10%" height="150%" width="150%" id="AI_木纹" filterUnits="objectBoundingBox">
		<feGaussianBlur in="SourceGraphic" result="blur" id="blur" stdDeviation="4"></feGaussianBlur>
		<feOffset dx="4" dy="4" in="blur" result="offsetBlurredAlpha" id="offset"></feOffset>
		<feFlood style="flood-color:black; flood-opacity:0.4" result="color" id="color"></feFlood>
		<feComposite in="color" in2="offsetBlurredAlpha" operator="in" result="offsetBlurredAlpha" id="shadowColor">
		</feComposite>

		<feDiffuseLighting resultScale="1" in="blur" result="diffuse" id="diffuse" surfaceScale="5"
			lighting-color="white" diffuseConstant="1">
			<feDistantLight azimuth="135" elevation="60" id="light2"></feDistantLight>
		</feDiffuseLighting>

		<feSpecularLighting in="blur" result="specularOut" surfaceScale="5" specularConstant="1" specularExponent="10"
			lighting-color="white">
			<feDistantLight azimuth="135" elevation="60" id="light"></feDistantLight>
		</feSpecularLighting>
		<feComposite in="specularOut" in2="SourceAlpha" operator="in" result="specularOut"></feComposite>
		<feComposite k2="0" k3="0" k4="0" k1="1" in="SourceGraphic" in2="diffuse" operator="arithmetic"
			result="litPaint">
		</feComposite>
		<feComposite k2="1" k3="1" k4="0" k1="0" in="litPaint" in2="specularOut" operator="arithmetic"
			result="litPaint">
		</feComposite>
		<feMerge>
			<feMergeNode in="offsetBlurredAlpha"></feMergeNode>
			<feMergeNode in="litPaint"></feMergeNode>
		</feMerge>

		<feTurbulence type="fractalNoise" in="SourceAlpha" result="Turbulence" stitchTiles="noStitch" numOctaves="10"
			baseFrequency=".05">
		</feTurbulence>
		<feColorMatrix type="matrix" values="1 0 0 0 0 1 0 0 0 0 1 0 0 0 0 0 0 0 0 1" in="Turbulence"
			result="Grayscale">
		</feColorMatrix>
		<feGaussianBlur in="SourceAlpha" result="BlurredAlpha" stdDeviation="4"></feGaussianBlur>
		<feOffset dx="-4" dy="-5" in="BlurredAlpha" result="OffsetBlurredAlpha"></feOffset>
		<feComposite in="Grayscale" in2="OffsetBlurredAlpha" operator="in" result="CompBlurTurb"></feComposite>
		<feGaussianBlur in="CompBlurTurb" result="CompBlurTurb2" stdDeviation="1.5"></feGaussianBlur>
		<feComponentTransfer in="Grayscale" result="CompXferFire">
			<feFuncR type="table" tableValues="2 0"></feFuncR>
			<feFuncG type="table" tableValues=".7 0 "></feFuncG>
			<feFuncB type="table" tableValues=".1 0"></feFuncB>
		</feComponentTransfer>
		<feComposite in="CompXferFire" in2="SourceGraphic" operator="in" result="CompSourceFire"></feComposite>
		<feMerge result="MergeAll">
			<feMergeNode in="CompSourceFire"></feMergeNode>
		</feMerge>
	</filter>
	<filter x="0%" y="0%" height="100%" width="100%" id="AI_湍流_5" filterUnits="objectBoundingBox">
		<feTurbulence type="fractalNoise" result="turb" stitchTiles="noStitch" numOctaves="4" baseFrequency="0.4">
		</feTurbulence>
		<feComposite in="turb" in2="SourceAlpha" operator="in"></feComposite>
	</filter>
	<filter x="0%" y="0%" height="100%" width="100%" id="AI_湍流_3" filterUnits="objectBoundingBox">
		<feTurbulence type="turbulence" result="turb" stitchTiles="noStitch" numOctaves="8" baseFrequency="0.05">
		</feTurbulence>
		<feComposite in="turb" in2="SourceAlpha" operator="in"></feComposite>
	</filter>
	<filter id="AI_静态" filterUnits="objectBoundingBox">
		<feTurbulence type="fractalNoise" in="c1" result="c2" stitchTiles="noStitch" numOctaves="10" id="c2"
			baseFrequency="0.5">

			<animate fill="remove" repeatDur="indefinite" calcMode="linear" restart="always" to="0.7" from="0.5"
				additive="replace" dur="5s" accumulate="none" attributeName="baseFrequency">
			</animate>
		</feTurbulence>
		<feComposite in="c2" in2="SourceAlpha" operator="in"></feComposite>
	</filter>
	<filter x="-15%" y="-15%" height="130%" width="140%" id="AI_暗调_2" filterUnits="objectBoundingBox">
		<feGaussianBlur in="SourceAlpha" result="blur" stdDeviation="6"></feGaussianBlur>
		<feOffset dx="8" dy="8" in="blur" result="offsetBlurredAlpha"></feOffset>
		<feMerge>
			<feMergeNode in="offsetBlurredAlpha"></feMergeNode>
			<feMergeNode in="SourceGraphic"></feMergeNode>
		</feMerge>
	</filter>
	<filter id="AI_暗调_1" filterUnits="objectBoundingBox">
		<feGaussianBlur in="SourceAlpha" result="blur" stdDeviation="2"></feGaussianBlur>
		<feOffset dx="4" dy="4" in="blur" result="offsetBlurredAlpha"></feOffset>
		<feMerge>
			<feMergeNode in="offsetBlurredAlpha"></feMergeNode>
			<feMergeNode in="SourceGraphic"></feMergeNode>
		</feMerge>
	</filter>
	<filter filterRes="50 50" id="AI_播放像素_2" filterUnits="objectBoundingBox">

		<animate fill="remove" repeatDur="indefinite" calcMode="linear" restart="always" begin="0s" additive="replace"
			dur="10s" accumulate="none" values="50 50;20 20;50 50" attributeName="filterRes">
		</animate>
		<feGaussianBlur in="SourceAlpha" result="blur" id="blur" stdDeviation="7"></feGaussianBlur>

		<feDiffuseLighting resultScale="1" in="blur" result="diffuse" id="diffuse" surfaceScale="5"
			lighting-color="yellow" diffuseConstant="1">

			<animate fill="remove" repeatDur="indefinite" calcMode="linear" restart="always" begin="0s"
				additive="replace" dur="15s" accumulate="none" values="yellow;green;blue;indigo;violet;red;orange"
				attributeName="lighting-color">
			</animate>
			<feDistantLight azimuth="180" elevation="60"></feDistantLight>
		</feDiffuseLighting>

		<feSpecularLighting in="blur" result="specularOut" surfaceScale="15" specularConstant="10" specularExponent="15"
			lighting-color="red">

			<animate fill="remove" repeatDur="indefinite" calcMode="linear" restart="always" begin="0s"
				additive="replace" dur="15s" accumulate="none" values="indigo;green;yellow;blue;violet;red;orange"
				attributeName="lighting-color">
			</animate>
			<feDistantLight azimuth="180" elevation="60" id="light"></feDistantLight>
		</feSpecularLighting>
		<feComposite in="specularOut" in2="SourceAlpha" operator="in" result="specularOut"></feComposite>
		<feComposite k2="0" k3="0" k4="0" k1="1" in="SourceGraphic" in2="diffuse" operator="arithmetic"
			result="litPaint">
		</feComposite>
		<feComposite k2="1" k3="1" k4="0" k1="0" in="litPaint" in2="specularOut" operator="arithmetic"
			result="litPaint1">
		</feComposite>
		<feMerge>
			<feMergeNode in="litPaint1"></feMergeNode>
		</feMerge>
	</filter>
	<filter filterRes="50 50" id="AI_播放像素_1" filterUnits="objectBoundingBox">

		<animate fill="remove" repeatDur="indefinite" calcMode="spline" restart="always" begin="0s" additive="replace"
			dur="10s" accumulate="none" values="1 1;20 15;200 200; 15 20;1 1 " attributeName="filterRes">
		</animate>
		<feGaussianBlur in="SourceAlpha" result="blur" id="blur" stdDeviation="7"></feGaussianBlur>
		<feComposite in="blur" in2="SourceGraphic" operator="in" result="compositeOut"></feComposite>
		<feComposite k2="1" k3="1" k4="0" k1="0" in="compositeOut" in2="SourceAlpha" operator="arithmetic"
			result="compositeOut1">
		</feComposite>
		<feMerge>
			<feMergeNode in="compositeOut1"></feMergeNode>
		</feMerge>
	</filter>
	<filter id="AI_高斯模糊_7">
		<feGaussianBlur stdDeviation="7"></feGaussianBlur>
	</filter>
	<filter id="AI_高斯模糊_4">
		<feGaussianBlur stdDeviation="4"></feGaussianBlur>
	</filter>
	<filter id="AI_磨蚀_6">
		<feMorphology radius="6" in="SourceGraphic" operator="erode"></feMorphology>
	</filter>
	<filter id="AI_磨蚀_3">
		<feMorphology radius="3" in="SourceGraphic" operator="erode"></feMorphology>
	</filter>
	<filter id="AI_膨胀_6">
		<feMorphology radius="6" in="SourceGraphic" operator="dilate"></feMorphology>
	</filter>
	<filter id="AI_膨胀_3">
		<feMorphology radius="3" in="SourceGraphic" operator="dilate"></feMorphology>
	</filter>
	<filter x="-5%" y="-40%" height="140%" width="110%" id="AI_清风" filterUnits="objectBoundingBox">
		<feMorphology radius="1.2" in="SourceAlpha" operator="dilate" result="a" id="a"></feMorphology>
		<feMorphology radius="1.2" in="a" operator="dilate" result="b" id="b"></feMorphology>
		<feOffset dy="-4" in="b" result="b1" id="b1"></feOffset>
		<feTurbulence type="fractalNoise" in="b1" result="b2" stitchTiles="noStitch" numOctaves="5" id="b2"
			baseFrequency="0.2">
		</feTurbulence>
		<feDisplacementMap scale="3" in="b1" in2="b2" result="b3" id="b3" xChannelSelector="R" yChannelSelector="A">
		</feDisplacementMap>
		<feColorMatrix type="matrix" values="0 0 0 0 0  0 0 0 0 0  0 0 0 1 0  0 0 0 1 0" in="b3" result="b4" id="b4">
		</feColorMatrix>
		<feGaussianBlur in="b4" result="b5" id="b5" stdDeviation="1">

			<animate fill="freeze" calcMode="linear" restart="always" to="5" from="1" begin="0s" additive="replace"
				dur="5s" accumulate="none" attributeName="stdDeviation">
			</animate>
		</feGaussianBlur>
		<feOffset dy="-8" in="b" result="c1" id="c1"></feOffset>
		<feTurbulence type="fractalNoise" in="c1" result="c2" stitchTiles="noStitch" numOctaves="10" id="c2"
			baseFrequency="0.05">
		</feTurbulence>
		<feDisplacementMap scale="8" in="c1" in2="c2" result="c3" id="c3" xChannelSelector="R" yChannelSelector="A">
		</feDisplacementMap>
		<feColorMatrix type="matrix" values="0 0 0 0 0  0 0 0 1 0  0 0 0 1 0  0 0 0 1 0" in="c3" result="c4" id="c4">
		</feColorMatrix>
		<feGaussianBlur in="c4" result="c5" id="c5" stdDeviation="1"></feGaussianBlur>
		<feMerge>
			<feMergeNode in="c5"></feMergeNode>
			<feMergeNode in="b5"></feMergeNode>
			<feMergeNode in="a"></feMergeNode>
		</feMerge>
	</filter>
	<filter x="-20%" y="-20%" height="140%" width="140%" id="AI_斜角阴影_1">
		<feGaussianBlur in="SourceAlpha" result="blur" stdDeviation="4"></feGaussianBlur>
		<feOffset dx="4" dy="4" in="blur" result="offsetBlur"></feOffset>

		<feSpecularLighting style="lighting-color:white" in="blur" result="specOut" surfaceScale="5"
			specularConstant="1" specularExponent="10">
			<fePointLight x="-5000" y="-10000" z="-20000"></fePointLight>
		</feSpecularLighting>
		<feComposite in="specOut" in2="SourceAlpha" operator="in" result="specOut"></feComposite>
		<feComposite k2="1" k3="1" k4="0" k1="0" in="SourceGraphic" in2="specOut" operator="arithmetic"
			result="litPaint">
		</feComposite>
		<feMerge>
			<feMergeNode in="offsetBlur"></feMergeNode>
			<feMergeNode in="litPaint"></feMergeNode>
		</feMerge>
	</filter>
	<filter x="0%" y="0%" height="100%" width="100%" id="AI_Alpha_4" filterUnits="objectBoundingBox">
		<feTurbulence type="fractalNoise" result="turb" stitchTiles="noStitch" numOctaves="4" baseFrequency="0.1">
		</feTurbulence>
		<feComposite in="SourceGraphic" in2="turb" operator="in"></feComposite>
	</filter>
	<filter x="0%" y="0%" height="100%" width="100%" id="AI_Alpha_1" filterUnits="objectBoundingBox">
		<feTurbulence type="turbulence" result="turb" stitchTiles="noStitch" numOctaves="2" baseFrequency="0.05">
		</feTurbulence>
		<feComposite in="SourceGraphic" in2="turb" operator="in"></feComposite>
	</filter>
	<g filter="url(#AI_Alpha_1)">
		<polygon fill="#0096D7" points="55.039,0 72.047,34.462 110.078,39.988 82.559,66.813 89.055,104.69 55.039,86.807 21.023,104.69 
		27.52,66.813 0,39.988 38.031,34.462 	" />
	</g>
	<g filter="url(#AI_Alpha_4)">
		<polygon fill="#0096D7" points="192.249,0 209.256,34.462 247.288,39.988 219.768,66.813 226.265,104.69 192.249,86.807 
		158.232,104.69 164.729,66.813 137.209,39.988 175.241,34.462 	" />
	</g>
	<g filter="url(#AI_斜角阴影_1)">
		<polygon fill="#0096D7" points="329.458,0 346.466,34.462 384.497,39.988 356.978,66.813 363.474,104.69 329.458,86.807 
		295.442,104.69 301.938,66.813 274.419,39.988 312.45,34.462 	" />
	</g>
	<g filter="url(#AI_清风)">
		<polygon fill="#0096D7" points="466.668,0 483.676,34.462 521.707,39.988 494.188,66.813 500.684,104.69 466.668,86.807 
		432.651,104.69 439.148,66.813 411.629,39.988 449.66,34.462 	" />
	</g>
	<g filter="url(#AI_膨胀_3)">
		<polygon fill="#0096D7" points="603.877,0 620.885,34.462 658.916,39.988 631.396,66.813 637.893,104.69 603.877,86.807 
		569.861,104.69 576.357,66.813 548.838,39.988 586.869,34.462 	" />
	</g>
	<g filter="url(#AI_膨胀_3)">
		<polygon fill="#0096D7" points="741.086,0 758.094,34.462 796.125,39.988 768.605,66.813 775.102,104.69 741.086,86.807 
		707.07,104.69 713.566,66.813 686.047,39.988 724.078,34.462 	" />
	</g>
	<g filter="url(#AI_膨胀_6)">
		<polygon fill="#0096D7" points="55.039,161.627 72.047,196.089 110.078,201.616 82.559,228.441 89.055,266.318 55.039,248.435 
		21.023,266.318 27.52,228.441 0,201.616 38.031,196.089 	" />
	</g>
	<g filter="url(#AI_磨蚀_3)">
		<polygon fill="#0096D7" points="192.249,161.627 209.256,196.089 247.288,201.616 219.768,228.441 226.265,266.318 
		192.249,248.435 158.232,266.318 164.729,228.441 137.209,201.616 175.241,196.089 	" />
	</g>
	<g filter="url(#AI_磨蚀_6)">
		<polygon fill="#0096D7" points="329.458,161.627 346.466,196.089 384.497,201.616 356.978,228.441 363.474,266.318 
		329.458,248.435 295.442,266.318 301.938,228.441 274.419,201.616 312.45,196.089 	" />
	</g>
	<g filter="url(#AI_高斯模糊_4)">
		<polygon fill="#0096D7" points="466.668,161.627 483.676,196.089 521.707,201.616 494.188,228.441 500.684,266.318 
		466.668,248.435 432.651,266.318 439.148,228.441 411.629,201.616 449.66,196.089 	" />
	</g>
	<g filter="url(#AI_高斯模糊_7)">
		<polygon fill="#0096D7" points="603.877,161.627 620.885,196.089 658.916,201.616 631.396,228.441 637.893,266.318 
		603.877,248.435 569.861,266.318 576.357,228.441 548.838,201.616 586.869,196.089 	" />
	</g>
	<g filter="url(#AI_播放像素_1)">
		<polygon fill="#0096D7" points="741.086,161.627 758.094,196.089 796.125,201.616 768.605,228.441 775.102,266.318 
		741.086,248.435 707.07,266.318 713.566,228.441 686.047,201.616 724.078,196.089 	" />
	</g>
	<g filter="url(#AI_播放像素_2)">
		<polygon fill="#0096D7" points="55.039,323.255 72.047,357.717 110.078,363.243 82.559,390.068 89.055,427.945 55.039,410.063 
		21.023,427.945 27.52,390.068 0,363.243 38.031,357.717 	" />
	</g>
	<g filter="url(#AI_暗调_1)">
		<polygon fill="#0096D7" points="192.249,323.255 209.256,357.717 247.288,363.243 219.768,390.068 226.265,427.945 
		192.249,410.063 158.232,427.945 164.729,390.068 137.209,363.243 175.241,357.717 	" />
	</g>
	<g filter="url(#AI_暗调_2)">
		<polygon fill="#0096D7" points="329.458,323.255 346.466,357.717 384.497,363.243 356.978,390.068 363.474,427.945 
		329.458,410.063 295.442,427.945 301.938,390.068 274.419,363.243 312.45,357.717 	" />
	</g>
	<g filter="url(#AI_静态)">
		<polygon fill="#0096D7" points="466.668,323.255 483.676,357.717 521.707,363.243 494.188,390.068 500.684,427.945 
		466.668,410.063 432.651,427.945 439.148,390.068 411.629,363.243 449.66,357.717 	" />
	</g>
	<g filter="url(#AI_湍流_3)">
		<polygon fill="#0096D7" points="603.877,323.255 620.885,357.717 658.916,363.243 631.396,390.068 637.893,427.945 
		603.877,410.063 569.861,427.945 576.357,390.068 548.838,363.243 586.869,357.717 	" />
	</g>
	<g filter="url(#AI_湍流_5)">
		<polygon fill="#0096D7" points="741.086,323.255 758.094,357.717 796.125,363.243 768.605,390.068 775.102,427.945 
		741.086,410.063 707.07,427.945 713.566,390.068 686.047,363.243 724.078,357.717 	" />
	</g>
	<g filter="url(#AI_木纹)">
		<polygon fill="#0096D7" points="55.039,484.883 72.047,519.344 110.078,524.871 82.559,551.695 89.055,589.572 55.039,571.689 
		21.023,589.572 27.52,551.695 0,524.871 38.031,519.344 	" />
	</g>
</svg>