<?xml version="1.0" encoding="utf-8"?>
<!-- Generator: Adobe Illustrator 22.0.1, SVG Export Plug-In . SVG Version: 6.00 Build 0)  -->
<svg version="1.1" id="图层_1" xmlns="http://www.w3.org/2000/svg" xmlns:xlink="http://www.w3.org/1999/xlink" x="0px" y="0px"
	 viewBox="0 0 1024 1024" style="enable-background:new 0 0 1024 1024;" xml:space="preserve">
<style type="text/css">
	.st0{fill:#22B573;stroke:#FFFFFF;stroke-miterlimit:10;}
</style>
<path class="st0" d="M0,0v1024h1024V0H0z M369.9,895L266,840.4L162.1,895l19.8-115.7l-84.1-81.9L214,680.5l52-105.3l52,105.3
	l116.2,16.9l-84.1,81.9L369.9,895z M284.4,493.1c-119.8,0-217-97.1-217-217c0-119.8,97.1-217,217-217s217,97.1,217,217
	C501.3,396,404.2,493.1,284.4,493.1z M639.7,268.3c76.3-90.2-60.8-34.2-28.5-62.7c32.3-28.5-18.5-30.7-22.8-41.8
	c-19.6-51.2,100.7-146.3,207.1-72.2s184.3,83.6,153.9,134.9c-30.4,51.3-100.7,17.1-62.7,114s85.5,144.4-34.2,152
	s-160.3-25.9-146.3-112.1C709.8,357.9,541.1,384.7,639.7,268.3z M969.8,966.5H619.7V616.4h350.1V966.5z"/>
</svg>
